<?xml version="1.0" encoding="iso-8859-1"?>
<!-- Generator: Adobe Illustrator 19.0.0, SVG Export Plug-In . SVG Version: 6.00 Build 0)  -->
<svg version="1.1" id="Layer_1" xmlns="http://www.w3.org/2000/svg" x="0px" y="0px"
     viewBox="0 0 512 512" style="enable-background:new 0 0 512 512;" xml:space="preserve">
<g>
	<g>
		<path d="M314.421,0H116.737C96.947,0,80.842,16.123,80.842,35.947v44.895v368.219c0,19.842,16.132,35.991,35.956,35.991h145.667
			c4.965,0,8.982-4.018,8.982-8.982s-4.018-8.982-8.982-8.982H116.798c-9.921,0-17.991-8.088-17.991-18.026V89.825h233.544v244.193
			c0,4.965,4.018,8.982,8.982,8.982c4.965,0,8.982-4.018,8.982-8.982V80.842V35.947C350.316,16.123,334.21,0,314.421,0z
			 M332.351,71.86H98.807V35.947c0-9.912,8.044-17.982,17.93-17.982h197.684c9.886,0,17.93,8.07,17.93,17.982V71.86z"/>
	</g>
</g>
<g>
	<g>
		<path d="M215.579,377.263c-19.816,0-35.93,16.114-35.93,35.93s16.114,35.93,35.93,35.93c19.816,0,35.93-16.114,35.93-35.93
			S235.395,377.263,215.579,377.263z M215.579,431.158c-9.904,0-17.965-8.061-17.965-17.965s8.061-17.965,17.965-17.965
			c9.904,0,17.965,8.061,17.965,17.965S225.483,431.158,215.579,431.158z"/>
	</g>
</g>
<g>
	<g>
		<rect x="170.667" y="35.93" width="53.895" height="17.965"/>
	</g>
</g>
<g>
	<g>
		<rect x="242.526" y="35.93" width="26.947" height="17.965"/>
	</g>
</g>
<g>
	<g>
		<path d="M422.175,413.193h-35.93v-35.93c0-4.965-4.018-8.982-8.982-8.982h-35.93c-4.965,0-8.982,4.018-8.982,8.982v35.93h-35.93
			c-4.965,0-8.982,4.018-8.982,8.982v35.93c0,4.965,4.018,8.982,8.982,8.982h35.93v35.93c0,4.965,4.018,8.982,8.982,8.982h35.93
			c4.965,0,8.982-4.018,8.982-8.982v-35.93h35.93c4.965,0,8.982-4.018,8.982-8.982v-35.93
			C431.158,417.211,427.14,413.193,422.175,413.193z M413.193,449.123h-35.93c-4.965,0-8.982,4.018-8.982,8.982v35.93h-17.965
			v-35.93c0-4.965-4.018-8.982-8.982-8.982h-35.93v-17.965h35.93c4.965,0,8.982-4.018,8.982-8.982v-35.93h17.965v35.93
			c0,4.965,4.018,8.982,8.982,8.982h35.93V449.123z"/>
	</g>
</g>
<g>
</g>
<g>
</g>
<g>
</g>
<g>
</g>
<g>
</g>
<g>
</g>
<g>
</g>
<g>
</g>
<g>
</g>
<g>
</g>
<g>
</g>
<g>
</g>
<g>
</g>
<g>
</g>
<g>
</g>
</svg>
