<?xml version="1.0" encoding="iso-8859-1"?>
<!-- Generator: Adobe Illustrator 19.0.0, SVG Export Plug-In . SVG Version: 6.00 Build 0)  -->
<svg version="1.1" id="Layer_1" xmlns="http://www.w3.org/2000/svg" x="0px" y="0px"
     viewBox="0 0 512 512" style="enable-background:new 0 0 512 512;" xml:space="preserve">
<rect x="143.882" y="55.787" style="fill:#00A99D;" width="224.246" height="400.436"/>
<rect x="143.882" y="55.787" style="fill:#007F76;" width="48.052" height="400.436"/>
<rect x="320.073" y="55.787" style="fill:#33BAB1;" width="48.052" height="400.436"/>
<rect x="143.882" y="280.022" style="fill:#FFFFFF;" width="224.246" height="112.118"/>
<polygon style="fill:#9E005D;" points="367.804,280.033 280.026,280.033 256,296.05 231.974,280.033 144.196,280.033 
	144.196,96.131 367.804,96.131 "/>
<rect x="207.945" y="127.864" style="fill:#FFFFFF;" width="96.099" height="120.132"/>
<g>
	<path style="fill:#FBB03B;" d="M256,199.939L256,199.939c-8.846,0-16.017-7.171-16.017-16.017v-16.017
		c0-8.846,7.171-16.017,16.017-16.017l0,0c8.846,0,16.017,7.171,16.017,16.017v16.017C272.017,192.768,264.846,199.939,256,199.939z
		"/>
	<path style="fill:#FBB03B;" d="M280.026,247.992h-48.052v-8.009c0-13.269,10.757-24.026,24.026-24.026l0,0
		c13.269,0,24.026,10.757,24.026,24.026v8.009H280.026z"/>
	<polygon style="fill:#FBB03B;" points="400.196,72.098 384.522,72.098 384.522,39.706 352.131,39.706 352.131,24.033 
		400.196,24.033 	"/>
</g>
<g>
	<polygon style="fill:#9E005D;" points="424.229,55.38 408.555,55.38 408.555,15.673 367.804,15.673 367.804,0 424.229,0 	"/>
	<polygon style="fill:#9E005D;" points="127.478,72.098 111.804,72.098 111.804,24.033 159.869,24.033 159.869,39.706 
		127.478,39.706 	"/>
</g>
<polygon style="fill:#FBB03B;" points="103.445,55.38 87.771,55.38 87.771,0 144.196,0 144.196,15.673 103.445,15.673 "/>
<polygon style="fill:#9E005D;" points="400.196,487.967 352.131,487.967 352.131,472.294 384.522,472.294 384.522,439.902 
	400.196,439.902 "/>
<g>
	<polygon style="fill:#FBB03B;" points="424.229,512 367.804,512 367.804,496.327 408.555,496.327 408.555,456.62 424.229,456.62 	
		"/>
	<polygon style="fill:#FBB03B;" points="159.869,487.967 111.804,487.967 111.804,439.902 127.478,439.902 127.478,472.294 
		159.869,472.294 	"/>
</g>
<polygon style="fill:#9E005D;" points="144.196,512 87.771,512 87.771,456.62 103.445,456.62 103.445,496.327 144.196,496.327 "/>
<g>
	<rect x="247.641" y="87.771" style="fill:#FFFFFF;" width="16.718" height="15.673"/>
	<rect x="168.229" y="415.869" style="fill:#FFFFFF;" width="15.673" height="15.673"/>
	<rect x="328.098" y="415.869" style="fill:#FFFFFF;" width="15.673" height="15.673"/>
</g>
<path d="M136.042,47.947v416.107h239.916V47.947H136.042z M151.715,87.771V63.621h208.569v24.151h-80.251v15.673h80.252v168.229
	h-82.632L256,286.109l-21.653-14.435h-82.632V103.445h80.252V87.771H151.715z M360.285,448.379h-208.57v-48.183h208.569v48.183
	H360.285z M151.715,384.522v-97.176h77.886L256,304.946l26.398-17.599h77.887v97.176H151.715z"/>
<path d="M200.112,120.024v135.803h111.778V120.024H200.112z M239.81,240.154v-0.172c0-8.927,7.262-16.19,16.19-16.19
	c8.927,0,16.189,7.262,16.189,16.19v0.172H239.81z M296.215,240.154h-8.353v-0.172c0-17.569-14.293-31.863-31.862-31.863
	c-17.57,0-31.863,14.293-31.863,31.863v0.172h-8.353V135.698h80.431V240.154z"/>
<path d="M256,207.776c13.153,0,23.854-10.701,23.854-23.854v-16.017c0-13.153-10.701-23.854-23.854-23.854
	s-23.854,10.701-23.854,23.854v16.017C232.146,197.075,242.847,207.776,256,207.776z M247.819,167.905c0-4.511,3.67-8.18,8.18-8.18
	s8.18,3.67,8.18,8.18v16.017c0,4.511-3.67,8.18-8.18,8.18s-8.18-3.67-8.18-8.18V167.905z"/>
<rect x="199.576" y="328.098" style="fill:#00A99D;" width="112.849" height="15.673"/>
<rect x="199.576" y="352.131" style="fill:#FBB03B;" width="16.718" height="15.673"/>
<rect x="223.608" y="352.131" style="fill:#9E005D;" width="16.718" height="15.673"/>
<rect x="247.641" y="352.131" style="fill:#FBB03B;" width="16.718" height="15.673"/>
<rect x="271.673" y="352.131" style="fill:#9E005D;" width="16.718" height="15.673"/>
<rect x="295.706" y="352.131" style="fill:#FBB03B;" width="16.718" height="15.673"/>
<g>
</g>
<g>
</g>
<g>
</g>
<g>
</g>
<g>
</g>
<g>
</g>
<g>
</g>
<g>
</g>
<g>
</g>
<g>
</g>
<g>
</g>
<g>
</g>
<g>
</g>
<g>
</g>
<g>
</g>
</svg>
