<?xml version="1.0" encoding="iso-8859-1"?>
<!-- Generator: Adobe Illustrator 19.0.0, SVG Export Plug-In . SVG Version: 6.00 Build 0)  -->
<svg version="1.1" id="Layer_1" xmlns="http://www.w3.org/2000/svg" x="0px" y="0px"
     viewBox="0 0 512 512" style="enable-background:new 0 0 512 512;" xml:space="preserve">
<path d="M384,512H128c-8.448,0-15.36-6.912-15.36-15.36V15.36C112.64,6.912,119.552,0,128,0h256c8.448,0,15.36,6.912,15.36,15.36
	v481.28C399.36,505.088,392.448,512,384,512z"/>
<g>
	<path style="fill:#C9C9C9;" d="M286.72,481.28h-61.44c-2.816,0-5.12-2.304-5.12-5.12l0,0c0-2.816,2.304-5.12,5.12-5.12h61.44
		c2.816,0,5.12,2.304,5.12,5.12l0,0C291.84,478.976,289.536,481.28,286.72,481.28z"/>
	<path style="fill:#C9C9C9;" d="M252.88,25.76h-45.44c-2.816,0-5.12-2.304-5.12-5.12l0,0c0-2.816,2.304-5.12,5.12-5.12h45.44
		c2.816,0,5.12,2.304,5.12,5.12l0,0C258,23.456,255.696,25.76,252.88,25.76z"/>
	<circle style="fill:#C9C9C9;" cx="286.928" cy="20.648" r="5.128"/>
	<circle style="fill:#C9C9C9;" cx="304.56" cy="20.648" r="5.128"/>
</g>
<rect x="128" y="40.96" style="fill:#E04F5F;" width="256" height="409.6"/>
<g>
	<path style="fill:#FFFFFF;" d="M256,138.592c13.736,0,24.864,11.128,24.864,24.864S269.736,188.328,256,188.328
		c-13.736,0-24.864-11.128-24.864-24.864C231.136,149.736,242.264,138.592,256,138.592z M216.624,240.32
		c0.432-23.752,17.88-42.872,39.376-42.872s38.944,19.12,39.376,42.872H216.624z"/>
	<path style="fill:#FFFFFF;" d="M326.744,115.632c8.632,0,15.624,6.992,15.624,15.624s-6.992,15.632-15.624,15.632
		s-15.624-6.992-15.624-15.624S318.112,115.632,326.744,115.632z M302,179.552c0.272-14.928,11.232-26.936,24.744-26.936
		c13.504,0,24.472,12.016,24.744,26.936H302z"/>
	<path style="fill:#FFFFFF;" d="M185.256,115.632c8.632,0,15.624,6.992,15.624,15.624s-6.992,15.632-15.624,15.632
		s-15.624-6.992-15.624-15.624S176.624,115.632,185.256,115.632z M160.52,179.552c0.272-14.928,11.232-26.936,24.744-26.936
		c13.504,0,24.472,12.016,24.744,26.936H160.52z"/>
	<rect x="160.56" y="290.64" style="fill:#FFFFFF;" width="190.968" height="8"/>
	<rect x="160.56" y="323.36" style="fill:#FFFFFF;" width="190.968" height="8"/>
	<rect x="160.56" y="356.136" style="fill:#FFFFFF;" width="190.968" height="8"/>
	<rect x="160.56" y="388.872" style="fill:#FFFFFF;" width="190.968" height="8"/>
</g>
<g>
</g>
<g>
</g>
<g>
</g>
<g>
</g>
<g>
</g>
<g>
</g>
<g>
</g>
<g>
</g>
<g>
</g>
<g>
</g>
<g>
</g>
<g>
</g>
<g>
</g>
<g>
</g>
<g>
</g>
</svg>
