<?xml version="1.0" encoding="iso-8859-1"?>
<!-- Generator: Adobe Illustrator 16.0.0, SVG Export Plug-In . SVG Version: 6.00 Build 0)  -->
<!DOCTYPE svg PUBLIC "-//W3C//DTD SVG 1.1//EN" "http://www.w3.org/Graphics/SVG/1.1/DTD/svg11.dtd">
<svg version="1.1" id="Capa_1" xmlns="http://www.w3.org/2000/svg" x="0px" y="0px"
     width="579.165px" height="579.164px" viewBox="0 0 579.165 579.164"
     style="enable-background:new 0 0 579.165 579.164;"
     xml:space="preserve">
<g>
	<g>
		<g>
			<path d="M460.543,0H118.622C91.643,0,69.768,21.865,69.768,48.844v451.834c0,22.092,14.761,40.535,34.892,46.576V405.34
				c0-9.371,2.979-17.992,7.854-25.242V52.334c0-5.882,4.761-10.653,10.643-10.653h332.85c5.883,0,10.645,4.771,10.645,10.653
				v396.654c0,5.883-4.762,10.653-10.645,10.653h-76.649l-60.084,89.882h141.271c26.977,0,48.852-21.867,48.852-48.845V48.844
				C509.395,21.865,487.518,0,460.543,0z"/>
			<path d="M333.124,314.484c0.604,0.075,1.194,0.352,1.801,0.352c3.719,0,7.457-1.424,10.305-4.27
				c15.066-15.058,23.355-35.089,23.355-56.396c0-21.306-8.289-41.341-23.355-56.396c-15.045-15.063-35.08-23.354-56.385-23.354
				c-21.306,0-41.322,8.301-56.388,23.354c-15.063,15.055-23.354,35.088-23.354,56.396c0,20.424,7.797,39.547,21.687,54.373
				c2.066-0.291,4.06-0.775,6.181-0.775c1.747,0,3.474,0.105,5.18,0.293v-34.348c-2.56-6.11-3.907-12.721-3.907-19.543
				c0-13.517,5.255-26.229,14.819-35.792c19.123-19.104,52.438-19.104,71.563,0c9.562,9.563,14.817,22.273,14.817,35.792
				c0,8.576-2.336,16.713-6.319,24.047V314.484L333.124,314.484z"/>
			<path d="M368.696,348.367c6.148,0,12.013,1.66,17.586,4.031c0.136-0.123,0.322-0.168,0.457-0.304
				c26.164-26.151,40.564-60.928,40.564-97.926c0-36.996-14.4-71.771-40.564-97.924c-53.996-53.976-141.818-53.976-195.812,0
				c-26.161,26.153-40.563,60.929-40.563,97.924c0,26.285,7.401,51.385,21.004,73.139c4.268-1.336,8.766-2.182,13.488-2.182
				c5.104,0,10.037,0.846,14.629,2.412c1.308-1.898,2.958-3.502,4.535-5.17c-15.596-19.353-24.515-42.983-24.515-68.197
				c0-29.207,11.365-56.669,32.026-77.322c42.63-42.611,111.973-42.63,154.605,0c20.66,20.653,32.022,48.113,32.022,77.322
				c0,29.208-11.362,56.672-32.022,77.322c-4.744,4.742-5.295,11.84-2.125,17.406C365.586,348.738,367.102,348.367,368.696,348.367z
				"/>
			<path d="M383.116,372.16c-4.438-2.951-9.446-4.365-14.418-4.365c-8.401,0-16.678,4.07-21.703,11.613l-29.067,43.625
				c-0.437,0.654-1.154,1.022-1.916,1.022c-0.228,0-0.439-0.024-0.664-0.096c-0.986-0.293-1.65-1.195-1.65-2.209V250.669
				c0-14.39-11.688-26.059-26.052-26.059c-14.38,0-26.067,11.668-26.067,26.059v94.376c-3.434-10.348-13.111-17.852-24.609-17.852
				c-14.4,0-26.049,11.657-26.049,26.039v17.379c0-14.392-11.668-26.058-26.067-26.058c-14.362,0-26.03,11.668-26.03,26.058v10.274
				c-2.732-0.977-5.616-1.596-8.69-1.596c-14.38,0-26.049,11.658-26.049,26.049v163.515c0,5.69,4.61,10.311,10.32,10.311h136.164
				c3.438,0,6.66-1.717,8.558-4.582l111.215-166.303C398.333,396.311,395.106,380.139,383.116,372.16z"/>
		</g>
	</g>
</g>
<g>
</g>
<g>
</g>
<g>
</g>
<g>
</g>
<g>
</g>
<g>
</g>
<g>
</g>
<g>
</g>
<g>
</g>
<g>
</g>
<g>
</g>
<g>
</g>
<g>
</g>
<g>
</g>
<g>
</g>
</svg>
