<?xml version="1.0" encoding="iso-8859-1"?>
<!-- Generator: Adobe Illustrator 19.0.0, SVG Export Plug-In . SVG Version: 6.00 Build 0)  -->
<svg version="1.1" id="Layer_1" xmlns="http://www.w3.org/2000/svg" x="0px" y="0px"
     viewBox="0 0 504.119 504.119" style="enable-background:new 0 0 504.119 504.119;" xml:space="preserve">
<path d="M85.014,450.934c-4.742,4.75-12.43,4.758-17.187,0l0,0c-4.742-4.75-4.742-12.422,0-17.187l106.252-106.228
	c4.758-4.75,12.43-4.75,17.187,0l0,0c4.758,4.75,4.758,12.438,0,17.18L85.014,450.934z"/>
<path d="M336.272,450.934c4.758,4.75,12.43,4.758,17.187,0l0,0c4.742-4.75,4.742-12.422,0-17.187L247.231,327.519
	c-4.766-4.75-12.446-4.75-17.203,0l0,0c-4.758,4.75-4.758,12.438,0,17.18L336.272,450.934z"/>
<path style="fill:#5C6A6D;" d="M256.305,310.063c0,7.727-6.262,13.997-13.982,13.997H178.97c-7.719,0-13.982-6.27-13.982-13.997l0,0
	c0-7.719,6.262-13.989,13.982-13.989h63.354C250.043,296.074,256.305,302.344,256.305,310.063L256.305,310.063z"/>
<path style="fill:#495354;" d="M247.475,332.654c0,6.239-5.065,11.296-11.28,11.296H185.09c-6.215,0-11.28-5.057-11.28-11.296l0,0
	c0-6.231,5.065-11.288,11.28-11.288h51.105C242.41,321.375,247.475,326.424,247.475,332.654L247.475,332.654z"/>
<rect x="376.909" y="122.403" style="fill:#68767A;" width="33.879" height="139.941"/>
<polygon style="fill:#566566;" points="466.013,288.835 408.566,262.321 408.566,122.38 466.013,95.866 "/>
<polygon style="fill:#4F5C5E;" points="466.013,288.835 408.566,235.808 408.566,148.894 466.013,95.866 "/>
<rect x="371.749" y="145.215" style="fill:#5C6A6D;" width="33.879" height="94.279"/>
<path style="fill:#222E33;" d="M390.552,272.766c0,18.708-15.171,33.871-33.863,33.871H64.612
	c-18.708,0-33.863-15.163-33.863-33.871V111.919c0-18.7,15.155-33.855,33.863-33.855h292.076c18.692,0,33.863,15.155,33.863,33.855
	V272.766z"/>
<path style="fill:#344247;" d="M30.75,111.919c0-18.7,15.155-33.855,33.863-33.855h292.076c18.692,0,33.863,15.155,33.863,33.855"/>
<path style="fill:#5C6A6D;" d="M473.37,289.568c0,3.056-2.458,5.522-5.522,5.522l0,0c-3.048,0-5.522-2.465-5.522-5.522V95.134
	c0-3.056,2.473-5.522,5.522-5.522l0,0c3.064,0,5.522,2.465,5.522,5.522V289.568z"/>
<circle style="fill:#FC4799;" cx="331.42" cy="192.351" r="13.808"/>
<path style="fill:#DD1969;" d="M321.66,182.591c5.388-5.396,14.123-5.396,19.527,0c5.388,5.396,5.388,14.139,0,19.527"/>
<g>
	<path style="fill:#68767A;" d="M95.569,228.679c0,1.82-1.489,3.308-3.324,3.308H59.847c-1.827,0-3.324-1.481-3.324-3.308l0,0
		c0-1.827,1.489-3.316,3.324-3.316h32.398C94.072,225.363,95.569,226.851,95.569,228.679L95.569,228.679z"/>
	<path style="fill:#68767A;" d="M95.569,244.141c0,1.827-1.489,3.316-3.324,3.316H59.847c-1.827,0-3.324-1.481-3.324-3.316l0,0
		c0-1.827,1.489-3.316,3.324-3.316h32.398C94.072,240.825,95.569,242.314,95.569,244.141L95.569,244.141z"/>
	<path style="fill:#68767A;" d="M95.569,259.612c0,1.82-1.489,3.316-3.324,3.316H59.847c-1.827,0-3.324-1.489-3.324-3.316l0,0
		c0-1.827,1.489-3.316,3.324-3.316h32.398C94.072,256.295,95.569,257.784,95.569,259.612L95.569,259.612z"/>
	<path style="fill:#68767A;" d="M95.569,275.074c0,1.827-1.489,3.316-3.324,3.316H59.847c-1.827,0-3.324-1.481-3.324-3.316l0,0
		c0-1.82,1.489-3.316,3.324-3.316h32.398C94.072,271.758,95.569,273.247,95.569,275.074L95.569,275.074z"/>
	<circle style="fill:#68767A;" cx="122.405" cy="67.659" r="67.647"/>
</g>
<path style="fill:#5C6A6D;" d="M74.545,19.814c26.419-26.419,69.254-26.419,95.673,0c26.427,26.419,26.427,69.262,0,95.673"/>
<circle style="fill:#68767A;" cx="257.573" cy="67.659" r="67.655"/>
<path style="fill:#5C6A6D;" d="M209.784,19.814c26.419-26.419,69.246-26.419,95.665,0c26.427,26.419,26.427,69.262,0,95.673"/>
<path style="fill:#222E33;" d="M222.797,491.965c0,6.719-5.443,12.154-12.154,12.154l0,0c-6.711,0-12.154-5.435-12.154-12.154
	V341.728c0-6.727,5.443-12.154,12.154-12.154l0,0c6.711,0,12.154,5.427,12.154,12.154V491.965z"/>
<g>
</g>
<g>
</g>
<g>
</g>
<g>
</g>
<g>
</g>
<g>
</g>
<g>
</g>
<g>
</g>
<g>
</g>
<g>
</g>
<g>
</g>
<g>
</g>
<g>
</g>
<g>
</g>
<g>
</g>
</svg>
