<?xml version="1.0" encoding="iso-8859-1"?>
<!-- Generator: Adobe Illustrator 19.0.0, SVG Export Plug-In . SVG Version: 6.00 Build 0)  -->
<svg version="1.1" id="Layer_1" xmlns="http://www.w3.org/2000/svg" x="0px" y="0px"
     viewBox="0 0 317.016 317.016" style="enable-background:new 0 0 317.016 317.016;" xml:space="preserve">
<g>
	<path style="fill:#61B4E4;" d="M22.21,134.341L0,112.131c42.401-42.403,98.694-65.755,158.509-65.755
		c59.813,0,116.105,23.351,158.507,65.751l-22.21,22.21c-36.469-36.468-84.874-56.552-136.297-56.552
		C107.084,77.785,58.679,97.87,22.21,134.341z"/>
	<path style="fill:#005CB9;" d="M63.944,176.075l-22.211-22.21c31.237-31.237,72.709-48.439,116.775-48.439
		c44.067,0,85.537,17.201,116.774,48.437l-22.21,22.21c-25.304-25.303-58.888-39.238-94.564-39.238
		C122.832,136.835,89.248,150.77,63.944,176.075z"/>
	<path style="fill:#005CB9;" d="M105.679,217.811l-22.211-22.21c20.072-20.071,46.723-31.125,75.041-31.125
		s54.967,11.053,75.039,31.123l-22.211,22.21c-14.138-14.137-32.898-21.923-52.828-21.923
		C138.58,195.885,119.817,203.672,105.679,217.811z"/>
	<path style="fill:#005CB9;" d="M158.509,224.154c-12.836,0-24.457,5.204-32.871,13.615l32.871,32.871l32.871-32.871
		C182.967,229.357,171.345,224.154,158.509,224.154z"/>
</g>
<g>
</g>
<g>
</g>
<g>
</g>
<g>
</g>
<g>
</g>
<g>
</g>
<g>
</g>
<g>
</g>
<g>
</g>
<g>
</g>
<g>
</g>
<g>
</g>
<g>
</g>
<g>
</g>
<g>
</g>
</svg>
