<?xml version="1.0" encoding="iso-8859-1"?>
<!-- Generator: Adobe Illustrator 19.0.0, SVG Export Plug-In . SVG Version: 6.00 Build 0)  -->
<svg version="1.1" id="Layer_1" xmlns="http://www.w3.org/2000/svg" x="0px" y="0px"
     viewBox="0 0 512 512" style="enable-background:new 0 0 512 512;" xml:space="preserve">
<g>
	<g>
		<path d="M320.247,0H112.979C92.23,0,75.344,16.905,75.344,37.69v47.071v386.072c0,20.804,16.914,37.736,37.699,37.736h152.729
			c5.206,0,9.418-4.212,9.418-9.418s-4.212-9.418-9.418-9.418H113.043c-10.402,0-18.863-8.48-18.863-18.9V94.18h244.867v256.032
			c0,5.206,4.212,9.418,9.418,9.418s9.418-4.212,9.418-9.418V84.762V37.69C357.882,16.905,340.996,0,320.247,0z M339.046,75.344
			H94.18V37.69c0-10.393,8.434-18.854,18.799-18.854h207.268c10.365,0,18.799,8.462,18.799,18.854V75.344z"/>
	</g>
</g>
<g>
	<g>
		<path d="M216.613,395.554c-20.776,0-37.672,16.895-37.672,37.672s16.895,37.672,37.672,37.672
			c20.776,0,37.672-16.895,37.672-37.672S237.389,395.554,216.613,395.554z M216.613,452.062c-10.384,0-18.836-8.452-18.836-18.836
			c0-10.384,8.452-18.836,18.836-18.836c10.384,0,18.836,8.452,18.836,18.836C235.449,443.61,226.997,452.062,216.613,452.062z"/>
	</g>
</g>
<g>
	<g>
		<rect x="169.523" y="37.672" width="56.508" height="18.836"/>
	</g>
</g>
<g>
	<g>
		<rect x="244.867" y="37.672" width="28.254" height="18.836"/>
	</g>
</g>
<g>
	<g>
		<path d="M407.253,442.644l26.644-26.635c1.766-1.766,2.759-4.157,2.759-6.659s-0.993-4.893-2.759-6.659l-26.644-26.645
			c-3.532-3.532-9.786-3.532-13.318,0L367.3,402.691l-26.635-26.645c-1.766-1.766-4.157-2.759-6.659-2.759
			c-2.502,0-4.893,0.993-6.659,2.759l-26.645,26.645c-1.766,1.766-2.759,4.157-2.759,6.659s0.993,4.893,2.759,6.659l26.645,26.635
			l-26.645,26.635c-1.766,1.766-2.759,4.157-2.759,6.659s0.993,4.893,2.759,6.659l26.645,26.644c3.532,3.532,9.786,3.532,13.317,0
			l26.635-26.644l26.635,26.644c1.766,1.766,4.157,2.759,6.659,2.759s4.893-0.993,6.659-2.759l26.644-26.644
			c1.766-1.766,2.759-4.157,2.759-6.659s-0.993-4.893-2.759-6.659L407.253,442.644z M400.594,489.265l-26.635-26.644
			c-1.766-1.766-4.157-2.759-6.659-2.759s-4.893,0.993-6.659,2.759l-26.635,26.644l-13.327-13.327l26.644-26.635
			c1.766-1.766,2.759-4.157,2.759-6.659c0-2.502-0.993-4.893-2.759-6.659l-26.644-26.635l13.327-13.327l26.635,26.644
			c3.532,3.532,9.786,3.532,13.317,0l26.635-26.644l13.327,13.327l-26.644,26.635c-1.766,1.766-2.759,4.157-2.759,6.659
			c0,2.502,0.993,4.893,2.759,6.659l26.644,26.635L400.594,489.265z"/>
	</g>
</g>
<g>
</g>
<g>
</g>
<g>
</g>
<g>
</g>
<g>
</g>
<g>
</g>
<g>
</g>
<g>
</g>
<g>
</g>
<g>
</g>
<g>
</g>
<g>
</g>
<g>
</g>
<g>
</g>
<g>
</g>
</svg>
