<?xml version="1.0" encoding="iso-8859-1"?>
<!-- Generator: Adobe Illustrator 18.0.0, SVG Export Plug-In . SVG Version: 6.00 Build 0)  -->
<!DOCTYPE svg PUBLIC "-//W3C//DTD SVG 1.1//EN" "http://www.w3.org/Graphics/SVG/1.1/DTD/svg11.dtd">
<svg version="1.1" id="Capa_1" xmlns="http://www.w3.org/2000/svg" x="0px" y="0px"
     viewBox="0 0 433.5 433.5" style="enable-background:new 0 0 433.5 433.5;" xml:space="preserve">
<path style="fill:#CCCCCC;" d="M309.34,393v40.5h-79.89c-5.81,0-10.51-4.71-10.51-10.51V393h46.37H309.34z"/>
<path style="fill:#CCCCCC;" d="M399.75,393v30c0,5.8-4.71,10.5-10.51,10.5h-79.9V393H399.75z"/>
<path style="fill:#CCCCCC;" d="M399.75,149.02V179h-4.98H261.75v-40.5h127.48C395.04,138.5,399.75,143.21,399.75,149.02z"/>
<path style="fill:#B2B1AA;" d="M261.75,33.49V48h-28.27H33.75V33.49C33.75,14.99,48.74,0,67.24,0h161.02
	C246.75,0,261.75,14.99,261.75,33.49z"/>
<path style="fill:#B2B1AA;" d="M68.45,322h193.3v16.51c0,18.5-15,33.49-33.49,33.49h-9.32H67.24c-18.5,0-33.49-14.99-33.49-33.49
	V322H68.45z"/>
<polygon style="fill:#1A1A1A;" points="399.75,179 399.75,393 309.34,393 265.31,393 394.77,179 "/>
<polygon style="fill:#1A1A1A;" points="261.75,179 261.75,322 68.45,322 233.48,49.22 233.48,48 261.75,48 261.75,138.5 "/>
<path style="fill:#4D4D4D;" d="M394.77,179L265.31,393h-46.37v-21h9.32c18.49,0,33.49-14.99,33.49-33.49V322V179H394.77z"/>
<polygon style="fill:#4D4D4D;" points="233.48,48 233.48,49.22 68.45,322 33.75,322 33.75,48 "/>
<rect x="304.34" y="393" style="fill:#1A1A1A;" width="10" height="40.5"/>
<circle style="fill:#969489;" cx="147.75" cy="347" r="14.999"/>
<g>
</g>
<g>
</g>
<g>
</g>
<g>
</g>
<g>
</g>
<g>
</g>
<g>
</g>
<g>
</g>
<g>
</g>
<g>
</g>
<g>
</g>
<g>
</g>
<g>
</g>
<g>
</g>
<g>
</g>
</svg>
