<?xml version="1.0" encoding="iso-8859-1"?>
<!-- Generator: Adobe Illustrator 19.0.0, SVG Export Plug-In . SVG Version: 6.00 Build 0)  -->
<svg version="1.1" id="Layer_1" xmlns="http://www.w3.org/2000/svg" x="0px" y="0px"
     viewBox="0 0 512 512" style="enable-background:new 0 0 512 512;" xml:space="preserve">
<path d="M384.08,512H128.24c-8.48,0-15.36-6.88-15.36-15.36V15.68c0-8.48,6.88-15.36,15.36-15.36h255.84
	c8.48,0,15.36,6.88,15.36,15.36v480.96C399.44,505.12,392.48,512,384.08,512z"/>
<rect x="128.24" y="41.28" width="255.84" height="409.36"/>
<g>
	<path style="fill:#999999;" d="M286.56,25.92h-61.44c-2.8,0-5.12-2.32-5.12-5.12l0,0c0-2.8,2.32-5.12,5.12-5.12h61.44
		c2.8,0,5.12,2.32,5.12,5.12l0,0C291.68,23.6,289.36,25.92,286.56,25.92z"/>
	<path style="fill:#999999;" d="M286.8,481.28h-61.44c-2.8,0-5.12-2.32-5.12-5.12l0,0c0-2.8,2.32-5.12,5.12-5.12h61.44
		c2.8,0,5.12,2.32,5.12,5.12l0,0C291.92,478.96,289.68,481.28,286.8,481.28z"/>
	<path style="fill:#999999;" d="M314.16,207.2h-2.72c-2.72-11.44-12.96-20-25.28-20c-2.96,0-5.84,0.56-8.56,1.44
		c-6-17.12-22.32-29.52-41.52-29.52c-24.32,0-44,19.68-44,44c0,1.52,0.08,3.04,0.24,4.56c-16,2.8-28.24,16.72-28.24,33.52
		c0,18.72,15.28,34,34,34h116.08c18.72,0,34-15.28,34-34C348.24,222.56,332.88,207.2,314.16,207.2z"/>
</g>
<g>
	<rect x="204.32" y="347.52" style="fill:#F33052;" width="20.8" height="48.64"/>
	<polygon style="fill:#F33052;" points="214.24,302.48 182.48,347.52 204.32,347.52 245.92,347.52 	"/>
</g>
<g>
	<rect x="287.2" y="334.72" style="fill:#FFFFFF;" width="20.8" height="48.64"/>
	<polygon style="fill:#FFFFFF;" points="298.08,428.4 329.84,383.36 308,383.36 266.4,383.36 	"/>
	<rect x="307.36" y="152.08" style="fill:#FFFFFF;" width="10.24" height="10.24"/>
	<rect x="307.36" y="131.6" style="fill:#FFFFFF;" width="10.24" height="10.24"/>
	<rect x="307.36" y="111.2" style="fill:#FFFFFF;" width="10.24" height="10.24"/>
	<rect x="307.36" y="90.72" style="fill:#FFFFFF;" width="10.24" height="10.24"/>
	<rect x="307.36" y="70.24" style="fill:#FFFFFF;" width="10.24" height="10.24"/>
	<rect x="245.92" y="111.2" style="fill:#FFFFFF;" width="10.24" height="10.24"/>
	<rect x="245.92" y="90.72" style="fill:#FFFFFF;" width="10.24" height="10.24"/>
	<rect x="245.92" y="70.24" style="fill:#FFFFFF;" width="10.24" height="10.24"/>
	<rect x="184.48" y="131.6" style="fill:#FFFFFF;" width="10.24" height="10.24"/>
	<rect x="184.48" y="111.2" style="fill:#FFFFFF;" width="10.24" height="10.24"/>
	<rect x="184.48" y="90.72" style="fill:#FFFFFF;" width="10.24" height="10.24"/>
	<rect x="184.48" y="70.24" style="fill:#FFFFFF;" width="10.24" height="10.24"/>
	<path style="opacity:0.2;fill:#FFFFFF;enable-background:new    ;" d="M399.12,56.48V15.36c0-8.48-6.88-15.36-15.36-15.36H127.92
		c-8.48,0-15.36,6.88-15.36,15.36v163.92L399.12,56.48z"/>
</g>
<g>
</g>
<g>
</g>
<g>
</g>
<g>
</g>
<g>
</g>
<g>
</g>
<g>
</g>
<g>
</g>
<g>
</g>
<g>
</g>
<g>
</g>
<g>
</g>
<g>
</g>
<g>
</g>
<g>
</g>
</svg>
