<?xml version="1.0" encoding="iso-8859-1"?>
<!-- Generator: Adobe Illustrator 19.0.0, SVG Export Plug-In . SVG Version: 6.00 Build 0)  -->
<svg version="1.1" id="Layer_1" xmlns="http://www.w3.org/2000/svg" x="0px" y="0px"
     viewBox="0 0 438.815 438.815" style="enable-background:new 0 0 438.815 438.815;" xml:space="preserve">
<g>
	<path style="fill:#808080;" d="M123.644,0h191.528c13.474,0,24.396,10.923,24.396,24.396v390.018
		c0,13.474-10.923,24.396-24.396,24.396H123.644c-13.474,0-24.396-10.923-24.396-24.396V24.396C99.247,10.923,110.17,0,123.644,0"/>
	<polyline style="fill:#FFFFFF;" points="328.232,57.923 328.232,373.146 110.589,373.146 110.589,57.923 328.232,57.923 	"/>
	<rect x="125.592" y="272.032" style="fill:#FC7A51;" width="86.32" height="86.11"/>
	<polyline style="fill:#2BE0C6;" points="125.592,174.032 211.912,174.032 211.912,257.032 125.592,257.032 125.592,174.032 	"/>
	<polyline style="fill:#FC7A51;" points="125.592,72.922 211.912,72.922 211.912,159.032 125.592,159.032 125.592,72.922 	"/>
	<polyline style="fill:#2BE0C6;" points="313.232,72.922 313.232,159.032 226.912,159.032 226.912,72.922 313.232,72.922 	"/>
	<polyline style="fill:#FC7A51;" points="226.912,257.032 226.912,174.032 313.232,174.032 313.232,257.032 226.912,257.032 	"/>
	<polyline style="fill:#2BE0C6;" points="226.912,272.032 313.232,272.032 313.232,358.142 226.912,358.142 226.912,272.032 	"/>
	<circle style="fill:#4D4D4D;" cx="219.408" cy="407.572" r="18.838"/>
	<polyline style="fill:#4D4D4D;" points="302.609,237.493 300.002,242.999 278.635,227.862 283.7,224.089 302.609,237.493 	"/>
	<polyline style="fill:#4D4D4D;" points="248.111,182.994 261.515,201.903 257.742,206.969 242.605,185.602 248.111,182.994 	"/>
	<path style="fill:#4D4D4D;" d="M300.002,242.999l-12.316,5.071c-11.872-3.894-22.462-10.496-31.058-19.094
		c-8.598-8.596-15.2-19.188-19.094-31.058l5.071-12.316l15.137,21.368l-5.037,1.568c2.885,5.086,6.434,9.735,10.532,13.831
		c4.098,4.098,8.745,7.645,13.831,10.532l1.568-5.038L300.002,242.999"/>
	<path style="fill:#F9DE58;" d="M200.58,286.529l-10.443-1.795l-13.626-2.335l-41.407,41.407l28.199,28.199l41.407-41.407
		L200.58,286.529z M185.153,301.956c-2.68-2.68-2.68-7.022,0-9.703s7.022-2.68,9.703,0c2.68,2.68,2.68,7.022,0,9.703
		C192.175,304.637,187.833,304.637,185.153,301.956z"/>
	<path style="fill:#FFFFFF;" d="M152.537,135.635h9.177h27.534h9.177l9.603-39.108h-65.093L152.537,135.635 M173.037,107.904
		h-10.115l-0.871-6.488h10.987L173.037,107.904 M177.926,101.416h10.987l-0.872,6.488h-10.115V101.416 M157.989,107.904h-7.154
		l-1.576-6.488h7.859L157.989,107.904 M152.021,112.792h6.625l0.919,6.844h-5.882L152.021,112.792 M163.578,112.792h9.458v6.844
		h-8.539L163.578,112.792 M177.926,112.792h9.459l-0.92,6.844h-8.539V112.792 M192.317,112.792h6.624l-1.661,6.844h-5.882
		L192.317,112.792 M192.974,107.904l0.871-6.488h7.859l-1.575,6.488H192.974 M156.381,130.747l-1.511-6.222h5.352l0.836,6.222
		H156.381 M165.154,124.525h7.883v6.222h-7.047L165.154,124.525 M177.926,130.747v-6.222h7.883l-0.836,6.222H177.926
		 M189.905,130.747l0.836-6.222h5.351l-1.51,6.222H189.905"/>
	<polygon style="fill:#FFFFFF;" points="142.935,96.527 147.969,96.527 144.513,82.454 129.476,82.454 129.476,87.342 
		140.68,87.342 	"/>
	<circle style="fill:#FFFFFF;" cx="165.203" cy="144.189" r="5.312"/>
	<circle style="fill:#FFFFFF;" cx="191.767" cy="144.189" r="5.312"/>
	<circle style="fill:#F9DE58;" cx="168.752" cy="215.532" r="33.06"/>
	<circle style="fill:#FFFFFF;" cx="168.752" cy="215.532" r="23.767"/>
	<polygon style="fill:#808080;" points="172.053,197.643 167.278,197.643 167.278,219.132 183.992,219.132 183.992,214.357 
		172.053,214.357 	"/>
	<path style="fill:#FFFFFF;" d="M286.286,325.887c0-8.941-7.274-16.215-16.215-16.215c-2.971,0-5.387-2.417-5.387-5.387
		c0-2.971,2.417-5.388,5.387-5.388h10.802V288.07h-5.39v-9.294h-10.827v10.244c-6.281,2.236-10.798,8.225-10.798,15.265
		c0,8.941,7.274,16.214,16.214,16.214c2.971,0,5.388,2.417,5.388,5.388s-2.417,5.387-5.388,5.387h-10.801v10.827h5.385v9.297h10.827
		v-10.245C281.767,338.919,286.286,332.928,286.286,325.887"/>
	<polyline style="fill:#F9DE58;" points="291.95,113.317 291.95,149.977 248.194,149.977 248.194,113.317 291.95,113.317 	"/>
	<polyline style="fill:#F9DE58;" points="295.014,113.317 245.13,113.317 245.13,102.673 295.014,102.673 295.014,113.317 	"/>
	<polyline style="fill:#E0BF20;" points="291.95,113.317 291.95,118.638 248.194,118.638 248.194,113.317 291.95,113.317 	"/>
	<path style="fill:#FC7A51;" d="M287.734,85.011c-1.874-1.875-4.458-3.033-7.314-3.033s-5.44,1.159-7.314,3.033
		c-1.874,1.875-3.033,4.458-3.033,7.315c0-2.856-1.159-5.44-3.033-7.315c-1.875-1.875-4.458-3.033-7.315-3.033
		c-2.856,0-5.44,1.159-7.314,3.033c-1.874,1.875-3.033,4.458-3.033,7.315c0,5.712,4.636,10.348,10.348,10.348h5.618v47.305h10.052
		v-47.305h5.026c5.712,0,10.348-4.636,10.348-10.348C290.768,89.469,289.609,86.885,287.734,85.011 M264.443,97.044h-4.719
		c-2.608,0-4.719-2.111-4.719-4.719c0-1.301,0.526-2.484,1.384-3.335c0.852-0.858,2.034-1.384,3.335-1.384s2.484,0.526,3.335,1.384
		c0.858,0.851,1.384,2.034,1.384,3.335V97.044 M280.42,97.044h-4.719v-4.719c0-1.301,0.526-2.484,1.384-3.335
		c0.852-0.858,2.034-1.384,3.335-1.384s2.484,0.526,3.335,1.384c0.858,0.851,1.384,2.034,1.384,3.335
		C285.139,94.933,283.028,97.044,280.42,97.044"/>
	<path style="fill:#FFFFFF;" d="M314.79,438.811h-25.212l0.001,0.004h24.746C314.48,438.815,314.635,438.814,314.79,438.811"/>
	<path style="fill:#A9A9A9;" d="M314.325,0H155.849l17.652,57.923h154.731v315.223h-58.665l20.013,65.669l25.211-0.004
		c13.725-0.249,24.777-11.454,24.777-25.238V25.243C339.568,11.303,328.265,0,314.325,0"/>
	<path style="fill:#FFFFFF;" d="M226.912,159.032v-86.11h86.32v86.11H226.912 M328.232,57.923H173.501l4.571,15h33.839v86.11h-7.597
		l4.571,15h3.026v9.928l15,49.221v-59.149h86.32v83H234.18l4.571,15h74.48v86.11h-48.238l4.572,15.004h58.665V57.923"/>
	<polyline style="fill:#6FEAD8;" points="211.912,174.032 208.886,174.032 211.912,183.961 211.912,174.032 	"/>
	<path style="fill:#FDA589;" d="M196.093,124.525h-2.294l1.277,4.19L196.093,124.525 M198.941,112.792h-6.624l-0.641,4.769
		l0.632,2.075h4.971L198.941,112.792 M188.913,101.416h-2.157l1.497,4.912L188.913,101.416 M201.704,101.416h-7.859l-0.871,6.488
		h7.155L201.704,101.416 M211.912,72.922h-33.839l7.194,23.605h22.762l-9.603,39.108h-1.241l7.13,23.397h7.597V72.922"/>
	<path style="fill:#6FEAD8;" d="M270.072,92.325c0-2.856,1.159-5.44,3.033-7.315s4.458-3.033,7.314-3.033s5.44,1.159,7.314,3.033
		c1.875,1.875,3.034,4.458,3.034,7.315c0,5.712-4.636,10.348-10.348,10.348h-5.026h19.62v10.644h-3.064v5.322v31.339h-43.756
		v-36.661h-3.064v-10.644h20.212h-5.618c-5.712,0-10.348-4.636-10.348-10.348c0-2.856,1.159-5.44,3.033-7.315
		c1.875-1.875,4.458-3.033,7.314-3.033c2.856,0,5.44,1.159,7.315,3.033C268.913,86.885,270.072,89.469,270.072,92.325
		 M313.232,72.922h-86.32v86.11h86.32V72.922"/>
	<path style="fill:#FDA589;" d="M242.605,185.602l5.506-2.608l13.404,18.909l-3.773,5.067l-5.037,1.568
		c2.885,5.086,6.434,9.735,10.532,13.831c4.098,4.098,8.745,7.645,13.831,10.532l1.568-5.038l5.065-3.773l18.91,13.404L300.002,243
		l-12.316,5.071c-11.872-3.894-22.462-10.496-31.058-19.094c-8.598-8.596-15.2-19.188-19.094-31.058L242.605,185.602
		 M313.232,174.032h-86.32v59.149l7.269,23.85h79.051V174.032"/>
	<path style="fill:#6FEAD8;" d="M313.232,272.032h-74.48l20.519,67.329v-8.087h10.801c2.971,0,5.388-2.417,5.388-5.387
		s-2.417-5.388-5.388-5.388c-8.941,0-16.214-7.274-16.214-16.214c0-7.04,4.517-13.028,10.798-15.265v-10.244h10.827v9.294h5.39
		v10.828H270.07c-2.971,0-5.387,2.417-5.387,5.388c0,2.97,2.417,5.387,5.387,5.387c8.941,0,16.215,7.274,16.215,16.215
		c0,7.041-4.52,13.031-10.804,15.266v10.245h-10.827v-9.297h-4.55l4.888,16.04h48.238L313.232,272.032"/>
	<polyline style="fill:#868686;" points="283.7,224.089 278.635,227.862 300.002,242.999 302.609,237.493 283.7,224.089 	"/>
	<polyline style="fill:#868686;" points="248.111,182.994 242.605,185.602 257.742,206.969 261.515,201.903 248.111,182.994 	"/>
	<path style="fill:#868686;" d="M242.605,185.602l-5.071,12.316c3.894,11.871,10.496,22.462,19.094,31.058
		c8.596,8.598,19.186,15.2,31.058,19.094l12.316-5.071l-21.368-15.137l-1.568,5.038c-5.086-2.887-9.733-6.434-13.831-10.532
		c-4.098-4.096-7.646-8.745-10.532-13.831l5.037-1.568L242.605,185.602"/>
	<path style="fill:#FFFFFF;" d="M192.974,107.904l0.871-6.488h7.859l-1.575,6.488H192.974 M208.028,96.527h-22.762l1.49,4.889h2.157
		l-0.66,4.912l3.424,11.234l0.641-4.769h6.624l-1.661,6.844h-4.971l1.49,4.888h2.294l-1.017,4.19l2.109,6.921h1.241L208.028,96.527"
		/>
	<path style="fill:#6FEAD8;" d="M259.724,87.606c-1.301,0-2.483,0.526-3.335,1.384c-0.857,0.851-1.384,2.034-1.384,3.335
		c0,2.608,2.111,4.719,4.719,4.719h4.719v-4.719c0-1.301-0.526-2.484-1.384-3.335C262.208,88.133,261.025,87.606,259.724,87.606
		 M280.42,87.606c-1.301,0-2.483,0.526-3.335,1.384c-0.857,0.851-1.384,2.034-1.384,3.335v4.719h4.719
		c2.608,0,4.719-2.111,4.719-4.719c0-1.301-0.526-2.484-1.384-3.335C282.903,88.133,281.721,87.606,280.42,87.606"/>
	<path style="fill:#FFFFFF;" d="M275.483,278.776h-10.827v10.244c-6.281,2.236-10.798,8.225-10.798,15.265
		c0,8.941,7.274,16.214,16.214,16.214c2.971,0,5.388,2.417,5.388,5.388s-2.417,5.387-5.388,5.387h-10.801v8.087l0.835,2.741h4.55
		v9.297h10.827v-10.245c6.284-2.235,10.804-8.225,10.804-15.266c0-8.941-7.274-16.215-16.215-16.215
		c-2.971,0-5.387-2.417-5.387-5.387c0-2.971,2.417-5.388,5.387-5.388h10.802V288.07h-5.39L275.483,278.776"/>
	<polyline style="fill:#FBE98E;" points="248.194,113.317 248.194,113.317 248.194,149.977 291.95,149.977 291.95,118.638 
		275.394,118.638 275.394,149.977 265.342,149.977 265.342,118.638 248.194,118.638 248.194,113.317 	"/>
	<path style="fill:#FBE98E;" d="M265.342,102.673H245.13v10.644h3.064h17.148V102.673 M295.014,102.673h-19.62v10.644h16.556h3.064
		V102.673"/>
	<path style="fill:#EAD468;" d="M265.342,113.317h-17.148v5.322h17.148V113.317 M291.95,113.317h-16.556v5.322h16.556V113.317"/>
	<path style="fill:#FDA589;" d="M265.342,118.638v-5.322h10.052v5.322H265.342 M259.724,97.044c-2.608,0-4.719-2.111-4.719-4.719
		c0-1.301,0.526-2.484,1.384-3.335c0.852-0.858,2.034-1.384,3.335-1.384s2.484,0.526,3.335,1.384
		c0.858,0.851,1.384,2.034,1.384,3.335v4.719H259.724 M275.701,97.044v-4.719c0-1.301,0.526-2.484,1.384-3.335
		c0.852-0.858,2.034-1.384,3.335-1.384s2.484,0.526,3.335,1.384c0.858,0.851,1.384,2.034,1.384,3.335
		c0,2.608-2.111,4.719-4.719,4.719H275.701 M280.42,81.977c-2.856,0-5.44,1.159-7.314,3.033c-1.874,1.875-3.033,4.458-3.033,7.315
		c0-2.856-1.159-5.44-3.033-7.315c-1.875-1.875-4.458-3.033-7.315-3.033c-2.856,0-5.44,1.159-7.314,3.033
		c-1.874,1.875-3.033,4.458-3.033,7.315c0,5.712,4.636,10.348,10.348,10.348h5.618v10.644v5.322v31.339h10.052v-31.339v-5.322
		v-10.644h5.026c5.712,0,10.348-4.636,10.348-10.348c0-2.856-1.159-5.44-3.034-7.315C285.859,83.136,283.276,81.977,280.42,81.977"
		/>
	<polyline style="fill:#E59F88;" points="275.393,113.317 265.342,113.317 265.342,118.638 275.393,118.638 275.393,113.317 	"/>
</g>
<g>
</g>
<g>
</g>
<g>
</g>
<g>
</g>
<g>
</g>
<g>
</g>
<g>
</g>
<g>
</g>
<g>
</g>
<g>
</g>
<g>
</g>
<g>
</g>
<g>
</g>
<g>
</g>
<g>
</g>
</svg>
