<?xml version="1.0"?>
<svg xmlns="http://www.w3.org/2000/svg" id="Layer_1" data-name="Layer 1" viewBox="0 0 64 64"><title>Dusk Part 1</title><rect x="7" y="7" width="50" height="50" rx="2" ry="2" style="fill:#f9e3ae;"/><path d="M11,32H53a4,4,0,0,1,4,4V54a3,3,0,0,1-3,3H10a3,3,0,0,1-3-3V36A4,4,0,0,1,11,32Z" style="fill:#f6d397;"/><rect x="13" y="13" width="38" height="38" rx="2" ry="2" style="fill:#ed7899;"/><path d="M43.71,20.29a1,1,0,0,0-1.41,0L32,30.59,21.71,20.29a1,1,0,0,0-1.41,1.41L30.59,32,20.29,42.29a1,1,0,1,0,1.41,1.41L32,33.41,42.29,43.71a1,1,0,0,0,1.41-1.41L33.41,32,43.71,21.71A1,1,0,0,0,43.71,20.29Z" style="fill:#faefde;"/><path d="M50,12H14a2,2,0,0,0-2,2V50a2,2,0,0,0,2,2h3a1,1,0,0,0,0-2H14V14H50V50H47a1,1,0,0,0,0,2h3a2,2,0,0,0,2-2V14A2,2,0,0,0,50,12Z" style="fill:#8d6c9f;"/><path d="M55,6H9A3,3,0,0,0,6,9V55a3,3,0,0,0,3,3H55a3,3,0,0,0,3-3V9A3,3,0,0,0,55,6Zm1,49a1,1,0,0,1-1,1H9a1,1,0,0,1-1-1V9A1,1,0,0,1,9,8H55a1,1,0,0,1,1,1Z" style="fill:#8d6c9f;"/><path d="M27,48a1,1,0,0,0-1,1v2a1,1,0,0,0,2,0V49A1,1,0,0,0,27,48Z" style="fill:#8d6c9f;"/><path d="M32,48a1,1,0,0,0-1,1v2a1,1,0,0,0,2,0V49A1,1,0,0,0,32,48Z" style="fill:#8d6c9f;"/><path d="M37,48a1,1,0,0,0-1,1v2a1,1,0,0,0,2,0V49A1,1,0,0,0,37,48Z" style="fill:#8d6c9f;"/><path d="M42,48a1,1,0,0,0-1,1v2a1,1,0,0,0,2,0V49A1,1,0,0,0,42,48Z" style="fill:#8d6c9f;"/><path d="M22,48a1,1,0,0,0-1,1v2a1,1,0,0,0,2,0V49A1,1,0,0,0,22,48Z" style="fill:#8d6c9f;"/></svg>
